<svg width="101" height="101" viewBox="0 0 101 101" fill="none" xmlns="http://www.w3.org/2000/svg">
<path d="M86.8922 21.638H70.1362L68.5692 15.922C68.4582 15.513 68.1772 15.171 67.7992 14.98C67.4212 14.789 66.9792 14.766 66.5852 14.918L48.7332 21.77C48.5462 21.686 48.3402 21.638 48.1222 21.638H26.6662C26.2592 21.638 25.8692 21.804 25.5862 22.097L12.3642 35.809C12.0782 36.034 11.8852 36.35 11.8182 36.701C11.8102 36.737 11.8082 36.775 11.8032 36.812C11.7982 36.86 11.7902 36.906 11.7892 36.955C11.7882 36.974 11.7832 36.993 11.7832 37.012C11.7832 37.013 11.7832 37.014 11.7832 37.016V83.86C11.7832 84.688 12.4542 85.36 13.2832 85.36H80.2002C81.0282 85.36 81.7002 84.688 81.7002 83.86V78.672H86.8912C87.7192 78.672 88.3912 78 88.3912 77.172V23.138C88.3922 22.309 87.7202 21.638 86.8922 21.638ZM70.8322 35.517H21.2922L66.1142 18.311L70.8322 35.517ZM27.3032 24.638H41.2622L19.1012 33.145L27.3032 24.638ZM78.7002 82.36H14.7832V38.517H78.7002V82.36ZM85.3922 75.672H81.7002V37.017C81.7002 36.188 81.0282 35.517 80.2002 35.517H73.9412L70.9582 24.638H85.3912V75.672H85.3922Z" fill="#FDFEFE"/>
</svg>
