<svg width="101" height="101" viewBox="0 0 101 101" fill="none" xmlns="http://www.w3.org/2000/svg">
<path d="M93.3283 70.6791C93.1393 65.3021 91.4633 58.8241 88.6113 52.439C85.7593 46.048 82.0543 40.474 78.1783 36.744C74.0103 32.732 70.0233 31.263 66.9373 32.593C66.9123 32.603 66.8863 32.607 66.8613 32.618L63.2413 34.2351V25.743C63.2413 25.731 63.2433 25.719 63.2433 25.707C63.2433 18.99 51.6533 13.925 36.2833 13.925C20.9453 13.925 9.37329 18.97 9.32529 25.666C9.32529 25.68 9.32129 25.693 9.32129 25.708V40.8881C9.32129 40.9681 9.33229 41.0461 9.34529 41.1221C9.33229 41.1991 9.32129 41.276 9.32129 41.356C9.32129 41.493 9.33329 41.6271 9.34329 41.7621C9.33229 41.8341 9.32129 41.905 9.32129 41.98V57.16C9.32129 57.2411 9.33229 57.319 9.34529 57.396C9.33229 57.473 9.32129 57.551 9.32129 57.632C9.32129 57.8031 9.33429 57.972 9.34829 58.14C9.33129 58.2281 9.32129 58.319 9.32129 58.412V73.5921C9.32129 73.6721 9.33229 73.75 9.34529 73.826C9.33229 73.903 9.32129 73.98 9.32129 74.06C9.32129 80.776 20.9133 85.84 36.2853 85.84C46.0503 85.84 54.9493 83.612 59.6333 80.09C63.8253 85.532 68.3353 88.74 72.1123 88.74C72.9733 88.74 73.7983 88.574 74.5703 88.229L88.8053 81.87C88.8193 81.8641 88.8343 81.86 88.8483 81.854C91.9433 80.473 93.5343 76.5041 93.3283 70.6791ZM53.0063 38.807L52.5743 38.9971C49.6013 40.3261 48.0993 43.99 48.0493 49.009C44.4593 49.794 40.4353 50.2271 36.2863 50.2271C22.1083 50.2271 12.2283 45.552 12.2283 41.355C12.2283 41.275 12.2173 41.197 12.2043 41.121C12.2173 41.044 12.2283 40.9671 12.2283 40.8871V31.194C16.5963 34.997 25.5083 37.489 36.2843 37.489C47.0573 37.489 55.9663 34.999 60.3363 31.197V35.5331L53.0063 38.807ZM12.2043 57.396C12.2173 57.319 12.2283 57.2411 12.2283 57.16V46.842C16.5983 50.643 25.5103 53.134 36.2863 53.134C40.4443 53.134 44.5153 52.7351 48.1763 51.9771C48.5113 55.6681 49.5003 59.8871 51.1473 64.3451C46.7393 65.772 41.7523 66.503 36.2863 66.503C22.1083 66.503 12.2283 61.828 12.2283 57.633C12.2283 57.551 12.2173 57.473 12.2043 57.396ZM36.2843 16.831C50.4473 16.831 60.3193 21.5 60.3373 25.696C60.3373 25.7 60.3363 25.703 60.3363 25.707V25.734C60.2943 29.925 50.4293 34.583 36.2843 34.583C22.1083 34.583 12.2303 29.905 12.2303 25.707C12.2303 21.509 22.1083 16.831 36.2843 16.831ZM36.2863 82.935C22.1083 82.935 12.2283 78.258 12.2283 74.061C12.2283 73.981 12.2173 73.9031 12.2043 73.8271C12.2173 73.7501 12.2283 73.6731 12.2283 73.5931V63.118C16.5983 66.919 25.5103 69.409 36.2863 69.409C42.1283 69.409 47.4743 68.6101 52.2153 67.0511C52.4063 67.5061 52.6033 67.963 52.8083 68.421C54.3623 71.899 56.1093 75.024 57.9463 77.737C53.8503 80.874 45.3863 82.935 36.2863 82.935ZM73.7833 85.394L73.3723 85.583C69.5333 87.287 61.2423 80.175 55.4613 67.2351C49.6863 54.291 49.9303 43.362 53.7543 41.653L63.0553 37.5C62.5293 39.237 62.2943 41.35 62.3813 43.795C62.5703 49.171 64.2463 55.6511 67.0993 62.042C69.9513 68.43 73.6563 74.0011 77.5323 77.7311C79.2993 79.4301 81.0293 80.6561 82.6763 81.424L73.7833 85.394ZM87.6693 79.198C87.6673 79.199 87.6643 79.199 87.6623 79.2L87.6523 79.204C85.7383 80.05 82.7823 78.7511 79.5473 75.6371C75.9343 72.16 72.4553 66.911 69.7533 60.857C67.0493 54.8 65.4623 48.7051 65.2853 43.6931C65.1273 39.195 66.1353 36.127 68.0513 35.273C68.4383 35.101 68.8653 35.016 69.3293 35.016C71.1693 35.016 73.5753 36.3471 76.1633 38.8371C79.7763 42.3141 83.2543 47.5651 85.9573 53.6231C88.6613 59.675 90.2473 65.769 90.4243 70.781C90.5833 75.273 89.5783 78.34 87.6693 79.198Z" fill="#FDFEFE"/>
</svg>
