<svg width="40" height="40" viewBox="0 0 40 40" fill="none" xmlns="http://www.w3.org/2000/svg">
<circle cx="20" cy="20" r="20" fill="black"/>
<path d="M28.8287 18.1444L15.2064 10.2805C14.5572 9.906 13.7167 9.90702 13.0699 10.2805C12.4102 10.6604 12 11.3701 12 12.1323V27.8611C12 28.6237 12.4099 29.3334 13.0658 29.7113C13.3903 29.9002 13.761 30 14.1378 30C14.5136 30 14.884 29.9006 15.207 29.713L28.8294 21.8484C29.4884 21.4675 29.8976 20.7581 29.8976 19.9969C29.8973 19.2368 29.4884 18.5273 28.8287 18.1444ZM27.8075 20.0803L14.1841 27.9452C14.1562 27.9612 14.1228 27.9629 14.0891 27.9435C14.0605 27.9268 14.0425 27.8952 14.0425 27.8611V12.132C14.0425 12.0979 14.0602 12.0666 14.0901 12.0492C14.1044 12.0407 14.1208 12.0363 14.1375 12.0363C14.1548 12.0363 14.1712 12.0407 14.1858 12.0492L27.8058 19.9121C27.8361 19.9298 27.8551 19.9622 27.8551 19.9969C27.8548 20.032 27.8371 20.0629 27.8075 20.0803Z" fill="white"/>
</svg>
